<svg xmlns="http://www.w3.org/2000/svg" version="1.1" xmlns:xlink="http://www.w3.org/1999/xlink" xmlns:svgjs="http://svgjs.com/svgjs" width="140" height="160"><svg xmlns="http://www.w3.org/2000/svg" xmlns:xlink="http://www.w3.org/1999/xlink" width="140" zoomAndPan="magnify" viewBox="0 0 104.88 119.999999" height="160" preserveAspectRatio="xMidYMid meet" version="1.0"><defs><g></g><clipPath id="SvgjsClipPath1003"><path d="M 74 7 L 104.761719 7 L 104.761719 27 L 74 27 Z M 74 7 " clip-rule="nonzero"></path></clipPath><clipPath id="SvgjsClipPath1002"><path d="M 74 0.0703125 L 104.761719 0.0703125 L 104.761719 8 L 74 8 Z M 74 0.0703125 " clip-rule="nonzero"></path></clipPath><clipPath id="SvgjsClipPath1001"><path d="M 3 0.0703125 L 34 0.0703125 L 34 57 L 3 57 Z M 3 0.0703125 " clip-rule="nonzero"></path></clipPath><clipPath id="SvgjsClipPath1000"><path d="M 0 18 L 104.761719 18 L 104.761719 119.929688 L 0 119.929688 Z M 0 18 " clip-rule="nonzero"></path></clipPath></defs><g clip-path="url(#368f82fb25)"><path fill="#e6e6e6" d="M 101.132812 7.558594 L 78.660156 7.558594 L 74.914062 26.289062 L 104.878906 26.289062 Z M 101.132812 7.558594 " fill-opacity="1" fill-rule="nonzero"></path></g><g clip-path="url(#2fdf73fb46)"><path fill="#48a0dc" d="M 101.132812 0.0703125 L 78.660156 0.0703125 C 76.59375 0.0703125 74.914062 1.746094 74.914062 3.8125 C 74.914062 5.882812 76.59375 7.558594 78.660156 7.558594 L 101.132812 7.558594 C 103.203125 7.558594 104.878906 5.882812 104.878906 3.8125 C 104.878906 1.746094 103.203125 0.0703125 101.132812 0.0703125 Z M 101.132812 0.0703125 " fill-opacity="1" fill-rule="nonzero"></path></g><path fill="#88c057" d="M 48.320312 12.910156 C 48.550781 12.421875 48.695312 11.882812 48.695312 11.304688 C 48.695312 9.238281 47.015625 7.558594 44.949219 7.558594 C 44.949219 5.492188 43.269531 3.8125 41.203125 3.8125 C 40.515625 3.8125 39.882812 4.011719 39.328125 4.332031 C 38.777344 4.011719 38.144531 3.8125 37.457031 3.8125 C 35.390625 3.8125 33.710938 5.492188 33.710938 7.558594 C 33.710938 8.246094 33.90625 8.878906 34.230469 9.433594 C 33.90625 9.984375 33.710938 10.621094 33.710938 11.304688 C 31.644531 11.304688 29.964844 12.984375 29.964844 15.050781 C 27.898438 15.050781 26.21875 16.730469 26.21875 18.796875 C 26.21875 20.863281 27.898438 22.542969 29.964844 22.542969 C 29.964844 24.609375 31.644531 26.289062 33.710938 26.289062 C 33.824219 26.289062 33.933594 26.265625 34.042969 26.253906 C 34.808594 28.449219 36.875 30.035156 39.328125 30.035156 C 39.894531 30.035156 40.429688 29.925781 40.949219 29.769531 C 41.632812 29.929688 42.339844 30.035156 43.074219 30.035156 C 48.246094 30.035156 52.441406 25.84375 52.441406 20.671875 C 52.441406 17.441406 50.804688 14.59375 48.320312 12.910156 Z M 41.203125 11.304688 C 41.203125 11.371094 41.21875 11.429688 41.222656 11.492188 C 41.207031 11.496094 41.195312 11.496094 41.183594 11.5 C 41.1875 11.433594 41.203125 11.371094 41.203125 11.304688 Z M 41.203125 11.304688 " fill-opacity="1" fill-rule="evenodd"></path><path fill="#ed7161" d="M 67.421875 11.304688 C 65.417969 11.304688 63.535156 11.835938 61.90625 12.757812 C 59.910156 9.636719 56.421875 7.558594 52.441406 7.558594 C 46.234375 7.558594 41.203125 12.589844 41.203125 18.796875 C 41.203125 25 46.234375 30.035156 52.441406 30.035156 C 54.445312 30.035156 56.328125 29.503906 57.957031 28.582031 C 59.953125 31.703125 63.441406 33.78125 67.421875 33.78125 C 73.628906 33.78125 78.660156 28.746094 78.660156 22.542969 C 78.660156 16.335938 73.628906 11.304688 67.421875 11.304688 Z M 67.421875 11.304688 " fill-opacity="1" fill-rule="evenodd"></path><g clip-path="url(#828b23000a)"><path fill="#ffcc66" d="M 22.472656 0.0703125 L 14.984375 0.0703125 C 8.777344 0.0703125 3.746094 5.101562 3.746094 11.304688 L 3.746094 45.015625 C 3.746094 51.222656 8.777344 56.253906 14.984375 56.253906 L 22.472656 56.253906 C 28.679688 56.253906 33.710938 51.222656 33.710938 45.015625 L 33.710938 11.304688 C 33.710938 5.101562 28.679688 0.0703125 22.472656 0.0703125 Z M 22.472656 0.0703125 " fill-opacity="1" fill-rule="nonzero"></path></g><g clip-path="url(#f9e180407c)"><path fill="#f2b477" d="M 97.386719 26.289062 L 89.898438 18.796875 L 82.40625 26.289062 L 74.914062 18.796875 L 67.421875 26.289062 L 59.929688 18.796875 L 52.441406 26.289062 L 44.949219 18.796875 L 37.457031 26.289062 L 29.964844 18.796875 L 22.472656 26.289062 L 14.984375 18.796875 L 7.492188 26.289062 L 0 18.796875 L 0 112.4375 C 0 116.574219 3.355469 119.929688 7.492188 119.929688 L 97.386719 119.929688 C 101.527344 119.929688 104.878906 116.574219 104.878906 112.4375 L 104.878906 18.796875 Z M 97.386719 26.289062 " fill-opacity="1" fill-rule="nonzero"></path></g><g fill="#008037" fill-opacity="0.4"><g transform="translate(25.795059, 104.241683)"><g><path d="M 58.453125 -33.5 L 58.453125 -20.515625 C 56.898438 -13.410156 53.515625 -8.03125 48.296875 -4.375 C 43.078125 -0.726562 37.25 1.09375 30.8125 1.09375 C 22.738281 1.09375 15.863281 -1.925781 10.1875 -7.96875 C 4.507812 -14.019531 1.671875 -21.320312 1.671875 -29.875 C 1.671875 -38.570312 4.445312 -45.914062 10 -51.90625 C 15.5625 -57.90625 22.5 -60.90625 30.8125 -60.90625 C 40.53125 -60.90625 48.21875 -57.5 53.875 -50.6875 L 44.953125 -40.90625 C 41.765625 -46.019531 37.316406 -48.578125 31.609375 -48.578125 C 27.410156 -48.578125 23.820312 -46.753906 20.84375 -43.109375 C 17.875 -39.460938 16.390625 -35.050781 16.390625 -29.875 C 16.390625 -24.800781 17.875 -20.460938 20.84375 -16.859375 C 23.820312 -13.253906 27.410156 -11.453125 31.609375 -11.453125 C 35.097656 -11.453125 38.132812 -12.503906 40.71875 -14.609375 C 43.300781 -16.710938 44.59375 -19.503906 44.59375 -22.984375 L 30.8125 -22.984375 L 30.8125 -33.5 Z M 58.453125 -33.5 "></path></g></g></g><g fill="#008037" fill-opacity="1"><g transform="translate(22.374478, 101.268219)"><g><path d="M 58.453125 -33.5 L 58.453125 -20.515625 C 56.898438 -13.410156 53.515625 -8.03125 48.296875 -4.375 C 43.078125 -0.726562 37.25 1.09375 30.8125 1.09375 C 22.738281 1.09375 15.863281 -1.925781 10.1875 -7.96875 C 4.507812 -14.019531 1.671875 -21.320312 1.671875 -29.875 C 1.671875 -38.570312 4.445312 -45.914062 10 -51.90625 C 15.5625 -57.90625 22.5 -60.90625 30.8125 -60.90625 C 40.53125 -60.90625 48.21875 -57.5 53.875 -50.6875 L 44.953125 -40.90625 C 41.765625 -46.019531 37.316406 -48.578125 31.609375 -48.578125 C 27.410156 -48.578125 23.820312 -46.753906 20.84375 -43.109375 C 17.875 -39.460938 16.390625 -35.050781 16.390625 -29.875 C 16.390625 -24.800781 17.875 -20.460938 20.84375 -16.859375 C 23.820312 -13.253906 27.410156 -11.453125 31.609375 -11.453125 C 35.097656 -11.453125 38.132812 -12.503906 40.71875 -14.609375 C 43.300781 -16.710938 44.59375 -19.503906 44.59375 -22.984375 L 30.8125 -22.984375 L 30.8125 -33.5 Z M 58.453125 -33.5 "></path></g></g></g></svg><style>@media (prefers-color-scheme: light) { :root { filter: none; } }
</style></svg>