<svg xmlns="http://www.w3.org/2000/svg" xmlns:xlink="http://www.w3.org/1999/xlink" width="200" zoomAndPan="magnify" viewBox="0 0 375 119.999999" height="64" preserveAspectRatio="xMidYMid meet" version="1.0"><defs><g/><clipPath id="6ca0854d2c"><path d="M 74 8 L 104.25 8 L 104.25 27 L 74 27 Z M 74 8 " clip-rule="nonzero"/></clipPath><clipPath id="1c58f5dc84"><path d="M 74 0.871094 L 104.25 0.871094 L 104.25 9 L 74 9 Z M 74 0.871094 " clip-rule="nonzero"/></clipPath><clipPath id="9975092384"><path d="M 3 0.871094 L 34 0.871094 L 34 57 L 3 57 Z M 3 0.871094 " clip-rule="nonzero"/></clipPath><clipPath id="268ba67819"><path d="M 0 19 L 104.25 19 L 104.25 120 L 0 120 Z M 0 19 " clip-rule="nonzero"/></clipPath></defs><g clip-path="url(#6ca0854d2c)"><path fill="#e6e6e6" d="M 100.523438 8.324219 L 78.1875 8.324219 L 74.460938 26.957031 L 104.246094 26.957031 Z M 100.523438 8.324219 " fill-opacity="1" fill-rule="nonzero"/></g><g clip-path="url(#1c58f5dc84)"><path fill="#48a0dc" d="M 100.523438 0.871094 L 78.1875 0.871094 C 76.128906 0.871094 74.460938 2.539062 74.460938 4.597656 C 74.460938 6.652344 76.128906 8.324219 78.1875 8.324219 L 100.523438 8.324219 C 102.578125 8.324219 104.246094 6.652344 104.246094 4.597656 C 104.246094 2.539062 102.578125 0.871094 100.523438 0.871094 Z M 100.523438 0.871094 " fill-opacity="1" fill-rule="nonzero"/></g><path fill="#88c057" d="M 48.03125 13.648438 C 48.261719 13.164062 48.402344 12.625 48.402344 12.050781 C 48.402344 9.992188 46.734375 8.324219 44.679688 8.324219 C 44.679688 6.265625 43.011719 4.597656 40.957031 4.597656 C 40.273438 4.597656 39.644531 4.792969 39.09375 5.113281 C 38.546875 4.792969 37.914062 4.597656 37.234375 4.597656 C 35.179688 4.597656 33.511719 6.265625 33.511719 8.324219 C 33.511719 9.003906 33.707031 9.636719 34.027344 10.1875 C 33.707031 10.738281 33.511719 11.367188 33.511719 12.050781 C 31.457031 12.050781 29.789062 13.71875 29.789062 15.777344 C 27.730469 15.777344 26.0625 17.445312 26.0625 19.503906 C 26.0625 21.558594 27.730469 23.230469 29.789062 23.230469 C 29.789062 25.285156 31.457031 26.957031 33.511719 26.957031 C 33.625 26.957031 33.730469 26.933594 33.839844 26.921875 C 34.601562 29.105469 36.652344 30.683594 39.09375 30.683594 C 39.65625 30.683594 40.1875 30.574219 40.703125 30.417969 C 41.382812 30.578125 42.085938 30.683594 42.816406 30.683594 C 47.957031 30.683594 52.125 26.511719 52.125 21.367188 C 52.125 18.152344 50.5 15.320312 48.03125 13.648438 Z M 40.957031 12.050781 C 40.957031 12.113281 40.972656 12.171875 40.976562 12.238281 C 40.960938 12.238281 40.949219 12.238281 40.9375 12.242188 C 40.9375 12.175781 40.957031 12.117188 40.957031 12.050781 Z M 40.957031 12.050781 " fill-opacity="1" fill-rule="evenodd"/><path fill="#ed7161" d="M 67.015625 12.050781 C 65.023438 12.050781 63.152344 12.578125 61.535156 13.496094 C 59.550781 10.386719 56.082031 8.324219 52.125 8.324219 C 45.957031 8.324219 40.957031 13.328125 40.957031 19.503906 C 40.957031 25.675781 45.957031 30.683594 52.125 30.683594 C 54.117188 30.683594 55.988281 30.152344 57.605469 29.238281 C 59.589844 32.34375 63.0625 34.410156 67.015625 34.410156 C 73.183594 34.410156 78.1875 29.402344 78.1875 23.230469 C 78.1875 17.054688 73.183594 12.050781 67.015625 12.050781 Z M 67.015625 12.050781 " fill-opacity="1" fill-rule="evenodd"/><g clip-path="url(#9975092384)"><path fill="#ffcc66" d="M 22.339844 0.871094 L 14.894531 0.871094 C 8.726562 0.871094 3.726562 5.878906 3.726562 12.050781 L 3.726562 45.589844 C 3.726562 51.761719 8.726562 56.769531 14.894531 56.769531 L 22.339844 56.769531 C 28.507812 56.769531 33.511719 51.761719 33.511719 45.589844 L 33.511719 12.050781 C 33.511719 5.878906 28.507812 0.871094 22.339844 0.871094 Z M 22.339844 0.871094 " fill-opacity="1" fill-rule="nonzero"/></g><g clip-path="url(#268ba67819)"><path fill="#f2b477" d="M 96.800781 26.957031 L 89.355469 19.503906 L 81.910156 26.957031 L 74.460938 19.503906 L 67.015625 26.957031 L 59.570312 19.503906 L 52.125 26.957031 L 44.679688 19.503906 L 37.234375 26.957031 L 29.789062 19.503906 L 22.339844 26.957031 L 14.894531 19.503906 L 7.449219 26.957031 L 0.00390625 19.503906 L 0.00390625 112.664062 C 0.00390625 116.78125 3.335938 120.121094 7.449219 120.121094 L 96.800781 120.121094 C 100.914062 120.121094 104.246094 116.78125 104.246094 112.664062 L 104.246094 19.503906 Z M 96.800781 26.957031 " fill-opacity="1" fill-rule="nonzero"/></g><g fill="#008037" fill-opacity="0.4"><g transform="translate(5.145211, 81.366326)"><g><path d="M 36.78125 -21.09375 L 36.78125 -12.921875 C 35.8125 -8.441406 33.679688 -5.050781 30.390625 -2.75 C 27.109375 -0.457031 23.441406 0.6875 19.390625 0.6875 C 14.316406 0.6875 9.988281 -1.210938 6.40625 -5.015625 C 2.832031 -8.816406 1.046875 -13.410156 1.046875 -18.796875 C 1.046875 -24.273438 2.796875 -28.898438 6.296875 -32.671875 C 9.796875 -36.453125 14.160156 -38.34375 19.390625 -38.34375 C 25.515625 -38.34375 30.351562 -36.195312 33.90625 -31.90625 L 28.296875 -25.734375 C 26.285156 -28.960938 23.488281 -30.578125 19.90625 -30.578125 C 17.25 -30.578125 14.984375 -29.425781 13.109375 -27.125 C 11.242188 -24.832031 10.3125 -22.054688 10.3125 -18.796875 C 10.3125 -15.609375 11.242188 -12.878906 13.109375 -10.609375 C 14.984375 -8.347656 17.25 -7.21875 19.90625 -7.21875 C 22.09375 -7.21875 24 -7.878906 25.625 -9.203125 C 27.25 -10.523438 28.0625 -12.28125 28.0625 -14.46875 L 19.390625 -14.46875 L 19.390625 -21.09375 Z M 36.78125 -21.09375 "/></g></g></g><g fill="#008037" fill-opacity="0.4"><g transform="translate(41.607412, 81.366326)"><g><path d="M 2.734375 0 L 2.734375 -23.40625 L 10.8125 -23.40625 L 10.8125 -20.03125 L 10.90625 -20.03125 C 10.96875 -20.15625 11.066406 -20.304688 11.203125 -20.484375 C 11.335938 -20.671875 11.632812 -20.992188 12.09375 -21.453125 C 12.550781 -21.910156 13.035156 -22.320312 13.546875 -22.6875 C 14.066406 -23.050781 14.738281 -23.375 15.5625 -23.65625 C 16.382812 -23.945312 17.222656 -24.09375 18.078125 -24.09375 C 18.953125 -24.09375 19.816406 -23.972656 20.671875 -23.734375 C 21.523438 -23.492188 22.148438 -23.25 22.546875 -23 L 23.1875 -22.640625 L 19.8125 -15.796875 C 18.800781 -16.640625 17.398438 -17.0625 15.609375 -17.0625 C 14.640625 -17.0625 13.800781 -16.847656 13.09375 -16.421875 C 12.394531 -16.003906 11.898438 -15.488281 11.609375 -14.875 C 11.328125 -14.269531 11.125 -13.753906 11 -13.328125 C 10.875 -12.898438 10.8125 -12.566406 10.8125 -12.328125 L 10.8125 0 Z M 2.734375 0 "/></g></g></g><g fill="#008037" fill-opacity="0.4"><g transform="translate(62.964436, 81.366326)"><g><path d="M 4.953125 -2.78125 C 2.347656 -5.09375 1.046875 -8.054688 1.046875 -11.671875 C 1.046875 -15.296875 2.398438 -18.269531 5.109375 -20.59375 C 7.816406 -22.925781 11.164062 -24.09375 15.15625 -24.09375 C 19.082031 -24.09375 22.390625 -22.921875 25.078125 -20.578125 C 27.773438 -18.234375 29.125 -15.265625 29.125 -11.671875 C 29.125 -8.085938 27.804688 -5.128906 25.171875 -2.796875 C 22.535156 -0.472656 19.195312 0.6875 15.15625 0.6875 C 10.957031 0.6875 7.554688 -0.46875 4.953125 -2.78125 Z M 11.203125 -15.65625 C 10.148438 -14.625 9.625 -13.300781 9.625 -11.6875 C 9.625 -10.070312 10.125 -8.753906 11.125 -7.734375 C 12.132812 -6.710938 13.460938 -6.203125 15.109375 -6.203125 C 16.691406 -6.203125 17.988281 -6.71875 19 -7.75 C 20.019531 -8.789062 20.53125 -10.101562 20.53125 -11.6875 C 20.53125 -13.300781 20.003906 -14.625 18.953125 -15.65625 C 17.910156 -16.6875 16.628906 -17.203125 15.109375 -17.203125 C 13.554688 -17.203125 12.253906 -16.6875 11.203125 -15.65625 Z M 11.203125 -15.65625 "/></g></g></g><g fill="#008037" fill-opacity="0.4"><g transform="translate(91.759965, 81.366326)"><g><path d="M 15.203125 -17.484375 C 13.679688 -17.484375 12.367188 -16.921875 11.265625 -15.796875 C 10.171875 -14.671875 9.625 -13.316406 9.625 -11.734375 C 9.625 -10.117188 10.171875 -8.75 11.265625 -7.625 C 12.367188 -6.5 13.679688 -5.9375 15.203125 -5.9375 C 15.929688 -5.9375 16.617188 -6.023438 17.265625 -6.203125 C 17.921875 -6.390625 18.40625 -6.570312 18.71875 -6.75 L 19.125 -7.03125 L 21.859375 -1.421875 C 21.648438 -1.265625 21.351562 -1.070312 20.96875 -0.84375 C 20.59375 -0.613281 19.726562 -0.300781 18.375 0.09375 C 17.019531 0.488281 15.566406 0.6875 14.015625 0.6875 C 10.578125 0.6875 7.554688 -0.519531 4.953125 -2.9375 C 2.347656 -5.363281 1.046875 -8.265625 1.046875 -11.640625 C 1.046875 -15.046875 2.347656 -17.972656 4.953125 -20.421875 C 7.554688 -22.867188 10.578125 -24.09375 14.015625 -24.09375 C 15.566406 -24.09375 16.992188 -23.910156 18.296875 -23.546875 C 19.609375 -23.179688 20.539062 -22.816406 21.09375 -22.453125 L 21.859375 -21.90625 L 19.125 -16.390625 C 18.125 -17.117188 16.816406 -17.484375 15.203125 -17.484375 Z M 15.203125 -17.484375 "/></g></g></g><g fill="#008037" fill-opacity="0.4"><g transform="translate(112.797549, 81.366326)"><g><path d="M 26.421875 -10.59375 L 9.453125 -10.59375 C 9.453125 -8.945312 9.984375 -7.726562 11.046875 -6.9375 C 12.109375 -6.144531 13.265625 -5.75 14.515625 -5.75 C 15.816406 -5.75 16.847656 -5.921875 17.609375 -6.265625 C 18.378906 -6.617188 19.25 -7.316406 20.21875 -8.359375 L 26.0625 -5.4375 C 23.625 -1.351562 19.578125 0.6875 13.921875 0.6875 C 10.390625 0.6875 7.359375 -0.519531 4.828125 -2.9375 C 2.304688 -5.363281 1.046875 -8.28125 1.046875 -11.6875 C 1.046875 -15.09375 2.304688 -18.007812 4.828125 -20.4375 C 7.359375 -22.875 10.390625 -24.09375 13.921875 -24.09375 C 17.628906 -24.09375 20.644531 -23.019531 22.96875 -20.875 C 25.300781 -18.726562 26.46875 -15.664062 26.46875 -11.6875 C 26.46875 -11.132812 26.453125 -10.769531 26.421875 -10.59375 Z M 9.671875 -15.0625 L 18.578125 -15.0625 C 18.390625 -16.28125 17.90625 -17.210938 17.125 -17.859375 C 16.351562 -18.515625 15.363281 -18.84375 14.15625 -18.84375 C 12.8125 -18.84375 11.742188 -18.492188 10.953125 -17.796875 C 10.160156 -17.097656 9.734375 -16.1875 9.671875 -15.0625 Z M 9.671875 -15.0625 "/></g></g></g><g fill="#008037" fill-opacity="0.4"><g transform="translate(138.946243, 81.366326)"><g><path d="M 2.734375 0 L 2.734375 -23.40625 L 10.8125 -23.40625 L 10.8125 -20.03125 L 10.90625 -20.03125 C 10.96875 -20.15625 11.066406 -20.304688 11.203125 -20.484375 C 11.335938 -20.671875 11.632812 -20.992188 12.09375 -21.453125 C 12.550781 -21.910156 13.035156 -22.320312 13.546875 -22.6875 C 14.066406 -23.050781 14.738281 -23.375 15.5625 -23.65625 C 16.382812 -23.945312 17.222656 -24.09375 18.078125 -24.09375 C 18.953125 -24.09375 19.816406 -23.972656 20.671875 -23.734375 C 21.523438 -23.492188 22.148438 -23.25 22.546875 -23 L 23.1875 -22.640625 L 19.8125 -15.796875 C 18.800781 -16.640625 17.398438 -17.0625 15.609375 -17.0625 C 14.640625 -17.0625 13.800781 -16.847656 13.09375 -16.421875 C 12.394531 -16.003906 11.898438 -15.488281 11.609375 -14.875 C 11.328125 -14.269531 11.125 -13.753906 11 -13.328125 C 10.875 -12.898438 10.8125 -12.566406 10.8125 -12.328125 L 10.8125 0 Z M 2.734375 0 "/></g></g></g><g fill="#008037" fill-opacity="0.4"><g transform="translate(160.303267, 81.366326)"><g><path d="M 20.5 -23.40625 L 29.796875 -23.40625 L 11.40625 11.859375 L 2.09375 11.859375 L 10.171875 -3.65625 L -0.90625 -23.40625 L 8.390625 -23.40625 L 14.921875 -11.40625 Z M 20.5 -23.40625 "/></g></g></g><g fill="#008037" fill-opacity="0.4"><g transform="translate(187.821021, 81.366326)"><g/></g></g><g fill="#008037" fill-opacity="0.4"><g transform="translate(198.910174, 81.366326)"><g><path d="M 0.359375 -30.125 L 0.359375 -37.65625 L 26.84375 -37.65625 L 26.84375 -30.125 L 17.890625 -30.125 L 17.890625 0 L 9.3125 0 L 9.3125 -30.125 Z M 0.359375 -30.125 "/></g></g></g><g fill="#008037" fill-opacity="0.4"><g transform="translate(224.739428, 81.366326)"><g><path d="M 2.734375 0 L 2.734375 -23.40625 L 10.8125 -23.40625 L 10.8125 -20.03125 L 10.90625 -20.03125 C 10.96875 -20.15625 11.066406 -20.304688 11.203125 -20.484375 C 11.335938 -20.671875 11.632812 -20.992188 12.09375 -21.453125 C 12.550781 -21.910156 13.035156 -22.320312 13.546875 -22.6875 C 14.066406 -23.050781 14.738281 -23.375 15.5625 -23.65625 C 16.382812 -23.945312 17.222656 -24.09375 18.078125 -24.09375 C 18.953125 -24.09375 19.816406 -23.972656 20.671875 -23.734375 C 21.523438 -23.492188 22.148438 -23.25 22.546875 -23 L 23.1875 -22.640625 L 19.8125 -15.796875 C 18.800781 -16.640625 17.398438 -17.0625 15.609375 -17.0625 C 14.640625 -17.0625 13.800781 -16.847656 13.09375 -16.421875 C 12.394531 -16.003906 11.898438 -15.488281 11.609375 -14.875 C 11.328125 -14.269531 11.125 -13.753906 11 -13.328125 C 10.875 -12.898438 10.8125 -12.566406 10.8125 -12.328125 L 10.8125 0 Z M 2.734375 0 "/></g></g></g><g fill="#008037" fill-opacity="0.4"><g transform="translate(246.096464, 81.366326)"><g><path d="M 4.328125 -2.890625 C 2.140625 -5.285156 1.046875 -8.21875 1.046875 -11.6875 C 1.046875 -15.15625 2.140625 -18.085938 4.328125 -20.484375 C 6.523438 -22.890625 9.3125 -24.09375 12.6875 -24.09375 C 15.789062 -24.09375 18.347656 -23.117188 20.359375 -21.171875 L 20.359375 -23.40625 L 28.4375 -23.40625 L 28.4375 0 L 20.453125 0 L 20.453125 -2.640625 L 20.359375 -2.640625 C 18.347656 -0.421875 15.789062 0.6875 12.6875 0.6875 C 9.3125 0.6875 6.523438 -0.503906 4.328125 -2.890625 Z M 11.203125 -15.65625 C 10.148438 -14.625 9.625 -13.300781 9.625 -11.6875 C 9.625 -10.070312 10.125 -8.753906 11.125 -7.734375 C 12.132812 -6.710938 13.460938 -6.203125 15.109375 -6.203125 C 16.691406 -6.203125 17.988281 -6.71875 19 -7.75 C 20.019531 -8.789062 20.53125 -10.101562 20.53125 -11.6875 C 20.53125 -13.300781 20.003906 -14.625 18.953125 -15.65625 C 17.910156 -16.6875 16.628906 -17.203125 15.109375 -17.203125 C 13.554688 -17.203125 12.253906 -16.6875 11.203125 -15.65625 Z M 11.203125 -15.65625 "/></g></g></g><g fill="#008037" fill-opacity="0.4"><g transform="translate(275.895976, 81.366326)"><g><path d="M 15.203125 -17.484375 C 13.679688 -17.484375 12.367188 -16.921875 11.265625 -15.796875 C 10.171875 -14.671875 9.625 -13.316406 9.625 -11.734375 C 9.625 -10.117188 10.171875 -8.75 11.265625 -7.625 C 12.367188 -6.5 13.679688 -5.9375 15.203125 -5.9375 C 15.929688 -5.9375 16.617188 -6.023438 17.265625 -6.203125 C 17.921875 -6.390625 18.40625 -6.570312 18.71875 -6.75 L 19.125 -7.03125 L 21.859375 -1.421875 C 21.648438 -1.265625 21.351562 -1.070312 20.96875 -0.84375 C 20.59375 -0.613281 19.726562 -0.300781 18.375 0.09375 C 17.019531 0.488281 15.566406 0.6875 14.015625 0.6875 C 10.578125 0.6875 7.554688 -0.519531 4.953125 -2.9375 C 2.347656 -5.363281 1.046875 -8.265625 1.046875 -11.640625 C 1.046875 -15.046875 2.347656 -17.972656 4.953125 -20.421875 C 7.554688 -22.867188 10.578125 -24.09375 14.015625 -24.09375 C 15.566406 -24.09375 16.992188 -23.910156 18.296875 -23.546875 C 19.609375 -23.179688 20.539062 -22.816406 21.09375 -22.453125 L 21.859375 -21.90625 L 19.125 -16.390625 C 18.125 -17.117188 16.816406 -17.484375 15.203125 -17.484375 Z M 15.203125 -17.484375 "/></g></g></g><g fill="#008037" fill-opacity="0.4"><g transform="translate(296.933573, 81.366326)"><g><path d="M 29.484375 -23.40625 L 18.34375 -12.234375 L 30.578125 0 L 20.171875 0 L 10.8125 -9.359375 L 10.8125 0 L 2.734375 0 L 2.734375 -39.25 L 10.8125 -39.25 L 10.8125 -15.25 L 18.984375 -23.40625 Z M 29.484375 -23.40625 "/></g></g></g><g fill="#008037" fill-opacity="0.4"><g transform="translate(325.044558, 81.366326)"><g><path d="M 26.421875 -10.59375 L 9.453125 -10.59375 C 9.453125 -8.945312 9.984375 -7.726562 11.046875 -6.9375 C 12.109375 -6.144531 13.265625 -5.75 14.515625 -5.75 C 15.816406 -5.75 16.847656 -5.921875 17.609375 -6.265625 C 18.378906 -6.617188 19.25 -7.316406 20.21875 -8.359375 L 26.0625 -5.4375 C 23.625 -1.351562 19.578125 0.6875 13.921875 0.6875 C 10.390625 0.6875 7.359375 -0.519531 4.828125 -2.9375 C 2.304688 -5.363281 1.046875 -8.28125 1.046875 -11.6875 C 1.046875 -15.09375 2.304688 -18.007812 4.828125 -20.4375 C 7.359375 -22.875 10.390625 -24.09375 13.921875 -24.09375 C 17.628906 -24.09375 20.644531 -23.019531 22.96875 -20.875 C 25.300781 -18.726562 26.46875 -15.664062 26.46875 -11.6875 C 26.46875 -11.132812 26.453125 -10.769531 26.421875 -10.59375 Z M 9.671875 -15.0625 L 18.578125 -15.0625 C 18.390625 -16.28125 17.90625 -17.210938 17.125 -17.859375 C 16.351562 -18.515625 15.363281 -18.84375 14.15625 -18.84375 C 12.8125 -18.84375 11.742188 -18.492188 10.953125 -17.796875 C 10.160156 -17.097656 9.734375 -16.1875 9.671875 -15.0625 Z M 9.671875 -15.0625 "/></g></g></g><g fill="#008037" fill-opacity="0.4"><g transform="translate(351.193252, 81.366326)"><g><path d="M 2.734375 0 L 2.734375 -23.40625 L 10.8125 -23.40625 L 10.8125 -20.03125 L 10.90625 -20.03125 C 10.96875 -20.15625 11.066406 -20.304688 11.203125 -20.484375 C 11.335938 -20.671875 11.632812 -20.992188 12.09375 -21.453125 C 12.550781 -21.910156 13.035156 -22.320312 13.546875 -22.6875 C 14.066406 -23.050781 14.738281 -23.375 15.5625 -23.65625 C 16.382812 -23.945312 17.222656 -24.09375 18.078125 -24.09375 C 18.953125 -24.09375 19.816406 -23.972656 20.671875 -23.734375 C 21.523438 -23.492188 22.148438 -23.25 22.546875 -23 L 23.1875 -22.640625 L 19.8125 -15.796875 C 18.800781 -16.640625 17.398438 -17.0625 15.609375 -17.0625 C 14.640625 -17.0625 13.800781 -16.847656 13.09375 -16.421875 C 12.394531 -16.003906 11.898438 -15.488281 11.609375 -14.875 C 11.328125 -14.269531 11.125 -13.753906 11 -13.328125 C 10.875 -12.898438 10.8125 -12.566406 10.8125 -12.328125 L 10.8125 0 Z M 2.734375 0 "/></g></g></g><g fill="#008037" fill-opacity="1"><g transform="translate(2.992419, 79.494934)"><g><path d="M 36.78125 -21.09375 L 36.78125 -12.921875 C 35.8125 -8.441406 33.679688 -5.050781 30.390625 -2.75 C 27.109375 -0.457031 23.441406 0.6875 19.390625 0.6875 C 14.316406 0.6875 9.988281 -1.210938 6.40625 -5.015625 C 2.832031 -8.816406 1.046875 -13.410156 1.046875 -18.796875 C 1.046875 -24.273438 2.796875 -28.898438 6.296875 -32.671875 C 9.796875 -36.453125 14.160156 -38.34375 19.390625 -38.34375 C 25.515625 -38.34375 30.351562 -36.195312 33.90625 -31.90625 L 28.296875 -25.734375 C 26.285156 -28.960938 23.488281 -30.578125 19.90625 -30.578125 C 17.25 -30.578125 14.984375 -29.425781 13.109375 -27.125 C 11.242188 -24.832031 10.3125 -22.054688 10.3125 -18.796875 C 10.3125 -15.609375 11.242188 -12.878906 13.109375 -10.609375 C 14.984375 -8.347656 17.25 -7.21875 19.90625 -7.21875 C 22.09375 -7.21875 24 -7.878906 25.625 -9.203125 C 27.25 -10.523438 28.0625 -12.28125 28.0625 -14.46875 L 19.390625 -14.46875 L 19.390625 -21.09375 Z M 36.78125 -21.09375 "/></g></g></g><g fill="#008037" fill-opacity="1"><g transform="translate(39.45462, 79.494934)"><g><path d="M 2.734375 0 L 2.734375 -23.40625 L 10.8125 -23.40625 L 10.8125 -20.03125 L 10.90625 -20.03125 C 10.96875 -20.15625 11.066406 -20.304688 11.203125 -20.484375 C 11.335938 -20.671875 11.632812 -20.992188 12.09375 -21.453125 C 12.550781 -21.910156 13.035156 -22.320312 13.546875 -22.6875 C 14.066406 -23.050781 14.738281 -23.375 15.5625 -23.65625 C 16.382812 -23.945312 17.222656 -24.09375 18.078125 -24.09375 C 18.953125 -24.09375 19.816406 -23.972656 20.671875 -23.734375 C 21.523438 -23.492188 22.148438 -23.25 22.546875 -23 L 23.1875 -22.640625 L 19.8125 -15.796875 C 18.800781 -16.640625 17.398438 -17.0625 15.609375 -17.0625 C 14.640625 -17.0625 13.800781 -16.847656 13.09375 -16.421875 C 12.394531 -16.003906 11.898438 -15.488281 11.609375 -14.875 C 11.328125 -14.269531 11.125 -13.753906 11 -13.328125 C 10.875 -12.898438 10.8125 -12.566406 10.8125 -12.328125 L 10.8125 0 Z M 2.734375 0 "/></g></g></g><g fill="#008037" fill-opacity="1"><g transform="translate(60.811644, 79.494934)"><g><path d="M 4.953125 -2.78125 C 2.347656 -5.09375 1.046875 -8.054688 1.046875 -11.671875 C 1.046875 -15.296875 2.398438 -18.269531 5.109375 -20.59375 C 7.816406 -22.925781 11.164062 -24.09375 15.15625 -24.09375 C 19.082031 -24.09375 22.390625 -22.921875 25.078125 -20.578125 C 27.773438 -18.234375 29.125 -15.265625 29.125 -11.671875 C 29.125 -8.085938 27.804688 -5.128906 25.171875 -2.796875 C 22.535156 -0.472656 19.195312 0.6875 15.15625 0.6875 C 10.957031 0.6875 7.554688 -0.46875 4.953125 -2.78125 Z M 11.203125 -15.65625 C 10.148438 -14.625 9.625 -13.300781 9.625 -11.6875 C 9.625 -10.070312 10.125 -8.753906 11.125 -7.734375 C 12.132812 -6.710938 13.460938 -6.203125 15.109375 -6.203125 C 16.691406 -6.203125 17.988281 -6.71875 19 -7.75 C 20.019531 -8.789062 20.53125 -10.101562 20.53125 -11.6875 C 20.53125 -13.300781 20.003906 -14.625 18.953125 -15.65625 C 17.910156 -16.6875 16.628906 -17.203125 15.109375 -17.203125 C 13.554688 -17.203125 12.253906 -16.6875 11.203125 -15.65625 Z M 11.203125 -15.65625 "/></g></g></g><g fill="#008037" fill-opacity="1"><g transform="translate(89.607172, 79.494934)"><g><path d="M 15.203125 -17.484375 C 13.679688 -17.484375 12.367188 -16.921875 11.265625 -15.796875 C 10.171875 -14.671875 9.625 -13.316406 9.625 -11.734375 C 9.625 -10.117188 10.171875 -8.75 11.265625 -7.625 C 12.367188 -6.5 13.679688 -5.9375 15.203125 -5.9375 C 15.929688 -5.9375 16.617188 -6.023438 17.265625 -6.203125 C 17.921875 -6.390625 18.40625 -6.570312 18.71875 -6.75 L 19.125 -7.03125 L 21.859375 -1.421875 C 21.648438 -1.265625 21.351562 -1.070312 20.96875 -0.84375 C 20.59375 -0.613281 19.726562 -0.300781 18.375 0.09375 C 17.019531 0.488281 15.566406 0.6875 14.015625 0.6875 C 10.578125 0.6875 7.554688 -0.519531 4.953125 -2.9375 C 2.347656 -5.363281 1.046875 -8.265625 1.046875 -11.640625 C 1.046875 -15.046875 2.347656 -17.972656 4.953125 -20.421875 C 7.554688 -22.867188 10.578125 -24.09375 14.015625 -24.09375 C 15.566406 -24.09375 16.992188 -23.910156 18.296875 -23.546875 C 19.609375 -23.179688 20.539062 -22.816406 21.09375 -22.453125 L 21.859375 -21.90625 L 19.125 -16.390625 C 18.125 -17.117188 16.816406 -17.484375 15.203125 -17.484375 Z M 15.203125 -17.484375 "/></g></g></g><g fill="#008037" fill-opacity="1"><g transform="translate(110.644756, 79.494934)"><g><path d="M 26.421875 -10.59375 L 9.453125 -10.59375 C 9.453125 -8.945312 9.984375 -7.726562 11.046875 -6.9375 C 12.109375 -6.144531 13.265625 -5.75 14.515625 -5.75 C 15.816406 -5.75 16.847656 -5.921875 17.609375 -6.265625 C 18.378906 -6.617188 19.25 -7.316406 20.21875 -8.359375 L 26.0625 -5.4375 C 23.625 -1.351562 19.578125 0.6875 13.921875 0.6875 C 10.390625 0.6875 7.359375 -0.519531 4.828125 -2.9375 C 2.304688 -5.363281 1.046875 -8.28125 1.046875 -11.6875 C 1.046875 -15.09375 2.304688 -18.007812 4.828125 -20.4375 C 7.359375 -22.875 10.390625 -24.09375 13.921875 -24.09375 C 17.628906 -24.09375 20.644531 -23.019531 22.96875 -20.875 C 25.300781 -18.726562 26.46875 -15.664062 26.46875 -11.6875 C 26.46875 -11.132812 26.453125 -10.769531 26.421875 -10.59375 Z M 9.671875 -15.0625 L 18.578125 -15.0625 C 18.390625 -16.28125 17.90625 -17.210938 17.125 -17.859375 C 16.351562 -18.515625 15.363281 -18.84375 14.15625 -18.84375 C 12.8125 -18.84375 11.742188 -18.492188 10.953125 -17.796875 C 10.160156 -17.097656 9.734375 -16.1875 9.671875 -15.0625 Z M 9.671875 -15.0625 "/></g></g></g><g fill="#008037" fill-opacity="1"><g transform="translate(136.79345, 79.494934)"><g><path d="M 2.734375 0 L 2.734375 -23.40625 L 10.8125 -23.40625 L 10.8125 -20.03125 L 10.90625 -20.03125 C 10.96875 -20.15625 11.066406 -20.304688 11.203125 -20.484375 C 11.335938 -20.671875 11.632812 -20.992188 12.09375 -21.453125 C 12.550781 -21.910156 13.035156 -22.320312 13.546875 -22.6875 C 14.066406 -23.050781 14.738281 -23.375 15.5625 -23.65625 C 16.382812 -23.945312 17.222656 -24.09375 18.078125 -24.09375 C 18.953125 -24.09375 19.816406 -23.972656 20.671875 -23.734375 C 21.523438 -23.492188 22.148438 -23.25 22.546875 -23 L 23.1875 -22.640625 L 19.8125 -15.796875 C 18.800781 -16.640625 17.398438 -17.0625 15.609375 -17.0625 C 14.640625 -17.0625 13.800781 -16.847656 13.09375 -16.421875 C 12.394531 -16.003906 11.898438 -15.488281 11.609375 -14.875 C 11.328125 -14.269531 11.125 -13.753906 11 -13.328125 C 10.875 -12.898438 10.8125 -12.566406 10.8125 -12.328125 L 10.8125 0 Z M 2.734375 0 "/></g></g></g><g fill="#008037" fill-opacity="1"><g transform="translate(158.150474, 79.494934)"><g><path d="M 20.5 -23.40625 L 29.796875 -23.40625 L 11.40625 11.859375 L 2.09375 11.859375 L 10.171875 -3.65625 L -0.90625 -23.40625 L 8.390625 -23.40625 L 14.921875 -11.40625 Z M 20.5 -23.40625 "/></g></g></g><g fill="#008037" fill-opacity="1"><g transform="translate(185.668228, 79.494934)"><g/></g></g><g fill="#008037" fill-opacity="1"><g transform="translate(196.757381, 79.494934)"><g><path d="M 0.359375 -30.125 L 0.359375 -37.65625 L 26.84375 -37.65625 L 26.84375 -30.125 L 17.890625 -30.125 L 17.890625 0 L 9.3125 0 L 9.3125 -30.125 Z M 0.359375 -30.125 "/></g></g></g><g fill="#008037" fill-opacity="1"><g transform="translate(222.586635, 79.494934)"><g><path d="M 2.734375 0 L 2.734375 -23.40625 L 10.8125 -23.40625 L 10.8125 -20.03125 L 10.90625 -20.03125 C 10.96875 -20.15625 11.066406 -20.304688 11.203125 -20.484375 C 11.335938 -20.671875 11.632812 -20.992188 12.09375 -21.453125 C 12.550781 -21.910156 13.035156 -22.320312 13.546875 -22.6875 C 14.066406 -23.050781 14.738281 -23.375 15.5625 -23.65625 C 16.382812 -23.945312 17.222656 -24.09375 18.078125 -24.09375 C 18.953125 -24.09375 19.816406 -23.972656 20.671875 -23.734375 C 21.523438 -23.492188 22.148438 -23.25 22.546875 -23 L 23.1875 -22.640625 L 19.8125 -15.796875 C 18.800781 -16.640625 17.398438 -17.0625 15.609375 -17.0625 C 14.640625 -17.0625 13.800781 -16.847656 13.09375 -16.421875 C 12.394531 -16.003906 11.898438 -15.488281 11.609375 -14.875 C 11.328125 -14.269531 11.125 -13.753906 11 -13.328125 C 10.875 -12.898438 10.8125 -12.566406 10.8125 -12.328125 L 10.8125 0 Z M 2.734375 0 "/></g></g></g><g fill="#008037" fill-opacity="1"><g transform="translate(243.943672, 79.494934)"><g><path d="M 4.328125 -2.890625 C 2.140625 -5.285156 1.046875 -8.21875 1.046875 -11.6875 C 1.046875 -15.15625 2.140625 -18.085938 4.328125 -20.484375 C 6.523438 -22.890625 9.3125 -24.09375 12.6875 -24.09375 C 15.789062 -24.09375 18.347656 -23.117188 20.359375 -21.171875 L 20.359375 -23.40625 L 28.4375 -23.40625 L 28.4375 0 L 20.453125 0 L 20.453125 -2.640625 L 20.359375 -2.640625 C 18.347656 -0.421875 15.789062 0.6875 12.6875 0.6875 C 9.3125 0.6875 6.523438 -0.503906 4.328125 -2.890625 Z M 11.203125 -15.65625 C 10.148438 -14.625 9.625 -13.300781 9.625 -11.6875 C 9.625 -10.070312 10.125 -8.753906 11.125 -7.734375 C 12.132812 -6.710938 13.460938 -6.203125 15.109375 -6.203125 C 16.691406 -6.203125 17.988281 -6.71875 19 -7.75 C 20.019531 -8.789062 20.53125 -10.101562 20.53125 -11.6875 C 20.53125 -13.300781 20.003906 -14.625 18.953125 -15.65625 C 17.910156 -16.6875 16.628906 -17.203125 15.109375 -17.203125 C 13.554688 -17.203125 12.253906 -16.6875 11.203125 -15.65625 Z M 11.203125 -15.65625 "/></g></g></g><g fill="#008037" fill-opacity="1"><g transform="translate(273.743184, 79.494934)"><g><path d="M 15.203125 -17.484375 C 13.679688 -17.484375 12.367188 -16.921875 11.265625 -15.796875 C 10.171875 -14.671875 9.625 -13.316406 9.625 -11.734375 C 9.625 -10.117188 10.171875 -8.75 11.265625 -7.625 C 12.367188 -6.5 13.679688 -5.9375 15.203125 -5.9375 C 15.929688 -5.9375 16.617188 -6.023438 17.265625 -6.203125 C 17.921875 -6.390625 18.40625 -6.570312 18.71875 -6.75 L 19.125 -7.03125 L 21.859375 -1.421875 C 21.648438 -1.265625 21.351562 -1.070312 20.96875 -0.84375 C 20.59375 -0.613281 19.726562 -0.300781 18.375 0.09375 C 17.019531 0.488281 15.566406 0.6875 14.015625 0.6875 C 10.578125 0.6875 7.554688 -0.519531 4.953125 -2.9375 C 2.347656 -5.363281 1.046875 -8.265625 1.046875 -11.640625 C 1.046875 -15.046875 2.347656 -17.972656 4.953125 -20.421875 C 7.554688 -22.867188 10.578125 -24.09375 14.015625 -24.09375 C 15.566406 -24.09375 16.992188 -23.910156 18.296875 -23.546875 C 19.609375 -23.179688 20.539062 -22.816406 21.09375 -22.453125 L 21.859375 -21.90625 L 19.125 -16.390625 C 18.125 -17.117188 16.816406 -17.484375 15.203125 -17.484375 Z M 15.203125 -17.484375 "/></g></g></g><g fill="#008037" fill-opacity="1"><g transform="translate(294.78078, 79.494934)"><g><path d="M 29.484375 -23.40625 L 18.34375 -12.234375 L 30.578125 0 L 20.171875 0 L 10.8125 -9.359375 L 10.8125 0 L 2.734375 0 L 2.734375 -39.25 L 10.8125 -39.25 L 10.8125 -15.25 L 18.984375 -23.40625 Z M 29.484375 -23.40625 "/></g></g></g><g fill="#008037" fill-opacity="1"><g transform="translate(322.891766, 79.494934)"><g><path d="M 26.421875 -10.59375 L 9.453125 -10.59375 C 9.453125 -8.945312 9.984375 -7.726562 11.046875 -6.9375 C 12.109375 -6.144531 13.265625 -5.75 14.515625 -5.75 C 15.816406 -5.75 16.847656 -5.921875 17.609375 -6.265625 C 18.378906 -6.617188 19.25 -7.316406 20.21875 -8.359375 L 26.0625 -5.4375 C 23.625 -1.351562 19.578125 0.6875 13.921875 0.6875 C 10.390625 0.6875 7.359375 -0.519531 4.828125 -2.9375 C 2.304688 -5.363281 1.046875 -8.28125 1.046875 -11.6875 C 1.046875 -15.09375 2.304688 -18.007812 4.828125 -20.4375 C 7.359375 -22.875 10.390625 -24.09375 13.921875 -24.09375 C 17.628906 -24.09375 20.644531 -23.019531 22.96875 -20.875 C 25.300781 -18.726562 26.46875 -15.664062 26.46875 -11.6875 C 26.46875 -11.132812 26.453125 -10.769531 26.421875 -10.59375 Z M 9.671875 -15.0625 L 18.578125 -15.0625 C 18.390625 -16.28125 17.90625 -17.210938 17.125 -17.859375 C 16.351562 -18.515625 15.363281 -18.84375 14.15625 -18.84375 C 12.8125 -18.84375 11.742188 -18.492188 10.953125 -17.796875 C 10.160156 -17.097656 9.734375 -16.1875 9.671875 -15.0625 Z M 9.671875 -15.0625 "/></g></g></g><g fill="#008037" fill-opacity="1"><g transform="translate(349.04046, 79.494934)"><g><path d="M 2.734375 0 L 2.734375 -23.40625 L 10.8125 -23.40625 L 10.8125 -20.03125 L 10.90625 -20.03125 C 10.96875 -20.15625 11.066406 -20.304688 11.203125 -20.484375 C 11.335938 -20.671875 11.632812 -20.992188 12.09375 -21.453125 C 12.550781 -21.910156 13.035156 -22.320312 13.546875 -22.6875 C 14.066406 -23.050781 14.738281 -23.375 15.5625 -23.65625 C 16.382812 -23.945312 17.222656 -24.09375 18.078125 -24.09375 C 18.953125 -24.09375 19.816406 -23.972656 20.671875 -23.734375 C 21.523438 -23.492188 22.148438 -23.25 22.546875 -23 L 23.1875 -22.640625 L 19.8125 -15.796875 C 18.800781 -16.640625 17.398438 -17.0625 15.609375 -17.0625 C 14.640625 -17.0625 13.800781 -16.847656 13.09375 -16.421875 C 12.394531 -16.003906 11.898438 -15.488281 11.609375 -14.875 C 11.328125 -14.269531 11.125 -13.753906 11 -13.328125 C 10.875 -12.898438 10.8125 -12.566406 10.8125 -12.328125 L 10.8125 0 Z M 2.734375 0 "/></g></g></g></svg>
